<?xml version="1.0" encoding="UTF-8"?>
<svg id="Layer_1" xmlns="http://www.w3.org/2000/svg" version="1.1" viewBox="0 0 1366 768">
  <!-- Generator: Adobe Illustrator 29.1.0, SVG Export Plug-In . SVG Version: 2.1.0 Build 142)  -->
  <defs>
    <style>
      .st0 {
        fill: #fff;
      }
    </style>
  </defs>
  <g>
    <g>
      <path class="st0" d="M329.58,406.1l1.65,32.71h-2.97c-9.09-21.64-16.85-29.07-36.84-29.07h-5.78v51.04h5.62c10.74,0,17.67-9.09,20.48-21.64h2.48v48.9h-2.81c-3.96-16.52-10.24-22.96-21.81-22.96h-3.96v53.03h6.28c20.98,0,35.52-14.37,40.47-32.38h3.3l-1.32,36.01h-90.69v-3.63h9.75v-108.37h-9.75v-3.63h85.9ZM293.4,372.24l7.93.66c5.95.5,7.93,4.13,7.93,7.43,0,4.13-2.81,7.76-7.27,9.58l-26.27,10.74-1.32-1.65,19-26.76Z"/>
      <path class="st0" d="M436.45,409.24h-12.88v-3.14h25.27v3.14h-7.76l-39.81,114.15h-13.88l-42.12-114.15h-7.6v-3.14h54.02v3.14h-11.73l27.75,82.6,28.74-82.6Z"/>
      <path class="st0" d="M484.36,482.92h-32.71l-12.72,35.68h12.39v3.14h-25.27v-3.14h7.76l42.12-113.49h13.55l41.63,113.49h7.6v3.14h-54.02v-3.14h11.73l-12.06-35.68ZM453.14,479.28h29.9l-14.37-43.28-15.53,43.28Z"/>
      <path class="st0" d="M637.16,521.74h-23.13l-56.66-106.88v103.74h9.09v3.14h-22.63v-3.14h9.08v-109.36h-9.08v-3.14h45.59l43.28,82.93v-79.79h-9.08v-3.14h22.63v3.14h-9.08v112.5Z"/>
      <path class="st0" d="M725.7,507.04v-32.05h-10.57v-3.63h47.58v3.63h-6.44v46.58h-2.48c-1.98-2.81-3.8-4.13-8.42-4.13-6.61,0-19,5.95-33.37,5.95-35.02,0-56.5-18.5-56.5-57.98s23.13-61.12,56.99-61.12c17.18,0,26.1,5.12,31.88,5.12,2.64,0,3.3-1.16,4.46-3.3h1.82l1.32,35.85h-2.97c-9.25-18.5-19.99-34.36-34.53-34.36-16.35,0-25.27,15.2-25.27,49.39v13.05c0,33.53,8.76,50.05,23.95,50.05,11.56,0,12.55-4.63,12.55-13.05Z"/>
      <path class="st0" d="M822.67,406.1v3.14h-9.09v109.36h9.09v3.14h-50.38v-3.14h9.09v-109.36h-9.09v-3.14h50.38Z"/>
      <path class="st0" d="M889.74,406.1v3.63h-17.51v108.37h5.95c20.48,0,29.57-14.87,39.32-35.02h3.47l-3.14,38.65h-87.55v-3.63h9.75v-108.37h-9.75v-3.63h59.47Z"/>
      <path class="st0" d="M1014.62,406.1l1.65,32.71h-2.97c-9.08-21.64-16.85-29.07-36.84-29.07h-5.78v51.04h5.62c10.74,0,17.68-9.09,20.48-21.64h2.48v48.9h-2.81c-3.96-16.52-10.24-22.96-21.8-22.96h-3.96v53.03h6.28c20.98,0,35.52-14.37,40.47-32.38h3.3l-1.32,36.01h-90.69v-3.63h9.75v-108.37h-9.75v-3.63h85.9Z"/>
      <path class="st0" d="M1101.34,502.58c0-13.71-10.24-18.17-30.56-23.95-19.99-5.62-35.19-13.54-35.19-38.49,0-18.5,13.71-35.85,39.15-35.85,15.2,0,23.79,5.12,29.4,5.12,2.81,0,3.63-1.16,4.79-3.3h1.82l1.16,33.37h-2.64c-8.42-15.2-19.66-31.72-36.67-31.72-11.89,0-20.15,6.94-20.15,16.68,0,12.22,11.23,16.35,27.92,20.81,18.34,4.96,38.65,11.23,38.65,38.65,0,23.79-16.19,39.48-40.47,39.48-16.02,0-29.9-4.96-34.53-4.96-2.64,0-3.63,1.82-4.96,4.96h-2.31l-1.65-39.32h2.81c8.26,16.52,24.28,35.85,42.45,35.85,9.91,0,20.98-5.29,20.98-17.35Z"/>
    </g>
    <g>
      <path class="st0" d="M641.97,327.79v1.72h-8.3v51.36h2.82c9.71,0,14.01-7.05,18.63-16.6h1.64l-1.49,18.32h-41.5v-1.72h4.62v-51.36h-4.62v-1.72h28.19Z"/>
      <path class="st0" d="M701.16,327.79l.78,15.5h-1.41c-4.31-10.26-7.99-13.78-17.46-13.78h-2.74v24.19h2.66c5.09,0,8.38-4.31,9.71-10.26h1.17v23.17h-1.33c-1.88-7.83-4.85-10.88-10.33-10.88h-1.88v25.13h2.98c9.94,0,16.83-6.81,19.18-15.34h1.57l-.63,17.07h-42.98v-1.72h4.62v-51.36h-4.62v-1.72h40.71Z"/>
      <path class="st0" d="M742.27,373.51c0-6.5-4.85-8.61-14.48-11.35-9.47-2.66-16.68-6.42-16.68-18.24,0-8.77,6.5-16.99,18.56-16.99,7.2,0,11.27,2.43,13.94,2.43,1.33,0,1.72-.55,2.27-1.57h.86l.55,15.82h-1.25c-3.99-7.2-9.32-15.03-17.38-15.03-5.64,0-9.55,3.29-9.55,7.91,0,5.79,5.32,7.75,13.23,9.87,8.69,2.35,18.32,5.32,18.32,18.32,0,11.27-7.67,18.71-19.18,18.71-7.59,0-14.17-2.35-16.36-2.35-1.25,0-1.72.86-2.35,2.35h-1.1l-.78-18.63h1.33c3.91,7.83,11.51,16.99,20.12,16.99,4.7,0,9.94-2.5,9.94-8.22Z"/>
    </g>
    <g>
      <g>
        <path class="st0" d="M343.81,538.98c35.52,0,53.52,21.81,53.52,59.3,0,34.2-14.54,55.34-46.92,58.31v1.16c13.55,1.49,18.17,8.09,20.81,16.19,2.81,8.09,4.29,11.73,9.58,11.73,4.29,0,6.61-3.96,7.43-13.22l3.63.33c-.5,14.87-10.08,22.47-23.62,22.47-18.01,0-24.45-9.42-28.41-22.47-2.97-9.58-4.46-10.74-7.43-10.74-2.81,0-7.43,2.48-12.22,6.77l-2.31-2.64c3.14-3.14,9.25-7.1,15.03-8.09v-.99c-30.23-3.14-45.59-23.79-45.59-56.66,0-37.99,19.66-61.45,56.5-61.45ZM363.3,593.16c0-33.86-.99-50.71-20.81-50.71s-21.31,17.51-21.31,51.38v11.89c0,31.06,1.98,48.9,21.31,48.9s20.81-16.02,20.81-49.23v-12.22Z"/>
        <path class="st0" d="M499.25,618.6v-74.67h-10.74v-3.14h24.12v3.14h-9.08v73.51c0,25.44-8.42,40.64-42.29,40.64-26.93,0-46.25-9.58-46.25-42.45v-71.69h-9.08v-3.14h52.04v3.14h-10.74v77.31c0,18.17,4.29,31.39,24.61,31.39,16.68,0,27.42-10.41,27.42-34.03Z"/>
        <path class="st0" d="M575.24,538.98c35.52,0,53.52,21.81,53.52,59.3s-17.34,59.8-55.5,59.8-54.51-21.31-54.51-57.65,19.66-61.45,56.5-61.45ZM594.73,593.16c0-33.86-.99-50.71-20.81-50.71s-21.31,17.51-21.31,51.38v11.89c0,31.06,1.98,48.9,21.31,48.9s20.81-16.02,20.81-49.23v-12.22Z"/>
        <path class="st0" d="M737.29,582.26h-3.14c-8.92-26.93-14.04-37.99-29.07-37.99h-1.98v108.7h14.04v3.47h-60.29v-3.47h14.04v-108.7h-2.15c-15.03,0-20.65,12.39-29.07,37.99h-3.14l1.65-41.46h97.46l1.65,41.46Z"/>
        <path class="st0" d="M797.92,540.8v3.14h-9.09v109.36h9.09v3.14h-50.38v-3.14h9.08v-109.36h-9.08v-3.14h50.38Z"/>
        <path class="st0" d="M852.26,656.43h-46.75v-3.14h10.9v-109.36h-10.9v-3.14h51.04c40.8,0,63.43,14.7,63.43,55.83,0,46.58-28.25,59.8-67.73,59.8ZM854.91,653.29c22.3,0,31.06-14.37,31.06-51.37v-9.58c0-40.14-10.24-48.4-33.37-48.4h-3.96v109.36h6.28Z"/>
        <path class="st0" d="M981.28,540.8v3.14h-9.09v109.36h9.09v3.14h-50.38v-3.14h9.08v-109.36h-9.08v-3.14h50.38Z"/>
        <path class="st0" d="M1074.77,540.8l1.65,32.71h-2.97c-9.08-21.64-16.85-29.07-36.84-29.07h-5.78v51.04h5.62c10.74,0,17.68-9.09,20.48-21.64h2.48v48.9h-2.81c-3.96-16.52-10.24-22.96-21.8-22.96h-3.96v53.03h6.28c20.98,0,35.52-14.37,40.47-32.38h3.3l-1.32,36.01h-90.69v-3.63h9.75v-108.37h-9.75v-3.63h85.9Z"/>
        <path class="st0" d="M1185.95,656.43h-23.13l-56.66-106.88v103.74h9.08v3.14h-22.63v-3.14h9.08v-109.36h-9.08v-3.14h45.59l43.28,82.93v-79.79h-9.09v-3.14h22.63v3.14h-9.09v112.5Z"/>
      </g>
      <g>
        <path class="st0" d="M190.64,595.5h-22.16v-1.49h5.17v-51.83h-5.17v-1.49h24.19c19.34,0,30.06,6.97,30.06,26.46,0,22.08-13.39,28.34-32.1,28.34ZM191.89,594.02c10.57,0,14.72-6.81,14.72-24.35v-4.54c0-19.03-4.85-22.94-15.82-22.94h-1.88v51.83h2.97Z"/>
        <path class="st0" d="M271.05,577.58v-35.39h-5.09v-1.49h11.43v1.49h-4.31v34.84c0,12.06-3.99,19.26-20.04,19.26-12.76,0-21.92-4.54-21.92-20.12v-33.98h-4.31v-1.49h24.66v1.49h-5.09v36.64c0,8.61,2.04,14.88,11.67,14.88,7.91,0,13-4.93,13-16.13Z"/>
      </g>
    </g>
  </g>
  <g>
    <path class="st0" d="M679.86,146.15s1-.04.94-1.29-.29-9.01-.18-11.96c.59-13.23.68-26.25.79-39.5.07-1.46.97-6.72,1.27-7.94s.54-3.66,1.29-5.79c.6-1.28.91-2.37,2.18-2.99,1.02-.44,2.57-.52,2.7-.93-.19-1.17-4.61-1.37-6.04-1.44-1.82,0-6.61-.05-9.43.1s-4.08.02-5.07.21-1.81.5-1.65,1.21.54,1.09,2.03,1.09,2.65-.41,3.31,1.28,2.37,5.43,2.76,10.52,1.01,9,1.32,11.76c1.04,10.7,1.97,20.89,2.49,31.56.05,2,.14,7.6.22,9.52s-.42,4.53,1.07,4.59Z"/>
    <circle class="st0" cx="676.89" cy="60.52" r="7.08"/>
    <circle class="st0" cx="679.74" cy="167.69" r="8.44"/>
    <circle class="st0" cx="786.05" cy="167.69" r="6.95"/>
    <circle class="st0" cx="683.72" cy="270.52" r="6.71"/>
    <circle class="st0" cx="570.2" cy="167.45" r="7.2"/>
    <path class="st0" d="M648.2,141.84c-1.48-1.76-7.46-9.41-10.19-12.64s-17.63-21.36-19.46-23.22-9.34-10.56-10.69-11.99-4.11-4.77-5.07-5.9-4.26-5.08-4.76-5.58-.25-.99.42-.95,1.56,1.44,2.67,2.8,5.1,4.6,6.59,6.17,4.22,4.88,7.14,7.64c2.92,2.76,10,8.67,13.48,11.79s13.9,11.29,16.3,13.53,9.03,8.19,11.56,10.73,5.42,5.41,6.57,6.87,3.75,4.06,3.6,5.72c-.37,4.19-9.37,2.19-11.62,1.1-2.93-1.41-5.06-4.31-6.55-6.08Z"/>
    <path class="st0" d="M702.23,166.86s0,1,1.26.99,9.02.08,11.96.31,13.2,1.25,15.51,1.26c2.44.02,9.54.76,11.75,1.03s10.47.46,11.93.59,6.92.75,8.13,1.09c2.34.62,6.4,1.25,8.65,3.01.51.61.29,1.31.65,2.24.7,2,1.97.89,2.02-.67.15-1.54-.31-3.37-.47-4.93-.14-2.21.33-6.28.31-9.17-.07-2.68,1.49-5.91-.46-6.88-1.35-.11-1.52,2.59-1.8,3.77-.39,1.5-1.86,2.59-3.18,2.94-1.42.63-5.68,1.63-8.65,1.64-5.1.18-9.03.64-11.81.84s-8.75.45-11.24.6-4.67.27-6.69.33-3.85.43-6.41.23-5.28.08-7.28.05-7.6-.16-9.52-.16-4.51-.61-4.63.88Z"/>
    <path class="st0" d="M698.03,142.21c1.9-2.64,4.31-5.06,6.08-6.55s9.41-7.46,12.64-10.19,21.36-17.63,23.22-19.46,10.56-9.34,11.99-10.69c3.41-3.07,7.07-6.06,10.63-9.14.47-.37,1.38-1.16,1.71-.63.04.82-1.21,1.72-1.82,2.28-2.38,1.95-4.56,4.87-6.84,7.09-2.39,2.27-4.96,4.37-7.88,7.39-2.76,2.92-8.67,10-11.79,13.48-3.12,3.48-11.29,13.9-13.53,16.3s-8.19,9.03-10.73,11.56-5.41,5.42-6.87,6.57-4.25,2.81-5.72,3.6c-1.43.47-2.72.46-3.73-.69-1.24-1.31-1.2-2.85-.92-4.8.53-2.34,1.66-3.49,3.56-6.13Z"/>
    <path class="st0" d="M696.68,192.64c1.16,1.46,4.04,4.33,6.57,6.87,2.53,2.54,9.17,8.48,11.56,10.73,2.39,2.24,12.82,10.41,16.3,13.53,3.48,3.12,10.57,9.03,13.48,11.79,3.44,3.32,5.53,6.02,8.48,8.88,2.65,2.29,5.12,4.91,7.56,7.21.52.38.9.5.96.28.1-.39-.63-1.41-1.02-1.88-1.69-2-3.41-4-4.97-5.84-4.83-5.54-9.8-11.12-14.71-16.45-1.83-1.86-16.73-19.99-19.46-23.22s-8.71-10.88-10.19-12.64-3.91-4.18-6.55-6.08c-2.64-1.9-3.7-1.81-6.13-3.56-1.43-.78-3.18-.98-4.34.29-1.3,1.19-1.86,2.76-1.15,4.36.92,2.08,2.44,4.26,3.6,5.72Z"/>
    <path class="st0" d="M659.68,192.02c-1.9,2.64-4.31,5.06-6.08,6.55s-9.41,7.46-12.64,10.19c-3.23,2.74-21.36,17.63-23.22,19.46s-10.56,9.34-11.99,10.69-4.77,4.11-5.9,5.07-5.08,4.26-5.58,4.76-.99.25-.95-.42,1.44-1.56,2.8-2.67,4.6-5.1,6.17-6.59,4.88-4.22,7.64-7.14c2.76-2.92,8.67-10,11.79-13.48,3.12-3.48,11.29-13.9,13.53-16.3s8.19-9.03,10.73-11.56,5.41-5.42,6.87-6.57,4.25-2.81,5.72-3.6c1.36-.66,3.11-.22,3.77.69.98,1.2,1.21,3.03.89,4.8-.33,1.97-1.66,3.49-3.56,6.13Z"/>
    <path class="st0" d="M657.96,166.7s-.05-1-1.3-.93-10.73-.22-13.68-.31-13.34-.54-15.65-.5-12.68-.09-14.9-.25-7.51-.35-8.97-.41-6.73-.92-7.95-1.21-3.66-.51-5.8-1.24c-1.2-.42-2.57-1.02-2.65-2.44-.08-1.24-2.13-4.55-2.99-1.97-.55,2.15-.16,4.9-.21,6.92.09,4.38.16,9.03.44,13.28.26,1.92,2.04,2.04,2.58.26.34-1.5-.21-3.22,1.45-4.06,1.69-.68,5.16-1.91,10.25-2.34,5.09-.43,8.99-1.08,11.75-1.41s8.72-.87,11.2-1.14,4.65-.5,6.67-.65,3.82.13,6.4.21c2.6-.07,5.04-.23,7.27-.4,2-.07,7.6-.2,9.52-.29s6.52.39,6.57-1.1Z"/>
    <path class="st0" d="M681.05,187.03s-1,.05-.93,1.3.35,9.01.27,11.96c-.09,2.95-.56,13.25-.52,15.55s.21,9.79.05,12.01.04,10.48-.02,11.94-.92,6.73-1.21,7.95c-.48,1.96-.62,5.42-2.2,7.46-.99,1.01-2.44.53-3.74.93-1.35.2-2.41,1.18-.8,1.97,1.61.62,4.76.1,6.81.03,2.41-.04,6.48.16,9.45-.01,1.2-.08,3.11-.05,4.12-.05.66-.03,2.11-.15,2.45-1.02.23-1.25-1.49-1.36-2.38-1.31-1.54.25-2.2-.38-2.62-1.64-.95-2.86-1.39-5.22-1.84-9.66-.43-5.09-1.18-9.01-1.51-11.77s-.87-8.72-1.14-11.2-.5-4.65-.65-6.67-.69-3.81-.92-6.38c-.25-2.73-.5-5.71-.75-7.45-.28-1.98-.72-7.44-.81-9.36s.39-4.53-1.1-4.58Z"/>
  </g>
</svg>