<?xml version="1.0" encoding="UTF-8"?>
<svg id="Layer_1" xmlns="http://www.w3.org/2000/svg" version="1.1" viewBox="0 0 595.28 841.89">
  <!-- Generator: Adobe Illustrator 29.1.0, SVG Export Plug-In . SVG Version: 2.1.0 Build 142)  -->
  <defs>
    <style>
      .st0 {
        fill: #fff;
      }
    </style>
  </defs>
  <path class="st0" d="M291.56,333.71c.66,1.69,2.37,5.43,2.76,10.52s1.01,9,1.32,11.76c1.04,10.7,1.97,20.89,2.49,31.56.05,2,.14,7.6.22,9.52.08,1.92-.42,4.53,1.07,4.59,0,0,1-.04.94-1.29s-.29-9.01-.18-11.96c.59-13.23.68-26.25.79-39.5.07-1.46.97-6.72,1.27-7.94.3-1.22.54-3.66,1.29-5.79.6-1.28.91-2.37,2.18-2.99,1.02-.44,2.57-.52,2.7-.93-.19-1.17-4.61-1.37-6.04-1.44-1.82,0-6.61-.05-9.43.1s-4.08.02-5.07.21-1.81.5-1.65,1.21c.16.71.54,1.09,2.03,1.09s2.65-.41,3.31,1.28Z"/>
  <circle class="st0" cx="296.45" cy="316.03" r="7.08"/>
  <circle class="st0" cx="299.3" cy="423.2" r="8.44"/>
  <circle class="st0" cx="405.61" cy="423.2" r="6.95"/>
  <circle class="st0" cx="303.28" cy="526.03" r="6.71"/>
  <circle class="st0" cx="189.76" cy="422.96" r="7.2"/>
  <path class="st0" d="M275.75,389.73c-2.53-2.54-9.16-8.49-11.56-10.73s-12.82-10.41-16.3-13.53-10.56-9.03-13.48-11.79c-2.92-2.76-5.65-6.07-7.14-7.64s-5.48-4.81-6.59-6.17-2-2.76-2.67-2.8c-.67-.04-.92.45-.42.95s3.8,4.45,4.76,5.58,3.72,4.47,5.07,5.9,8.86,10.13,10.69,11.99,16.73,19.99,19.46,23.22c2.73,3.23,8.71,10.88,10.19,12.64h-.01c1.49,1.76,3.62,4.66,6.55,6.07,2.25,1.09,11.25,3.09,11.62-1.1.15-1.66-2.45-4.26-3.6-5.72-1.15-1.46-4.04-4.33-6.57-6.87Z"/>
  <path class="st0" d="M393.03,411.24c-1.35-.11-1.52,2.59-1.8,3.77-.39,1.5-1.86,2.59-3.18,2.94-1.42.63-5.68,1.63-8.65,1.64-5.1.18-9.03.64-11.81.84s-8.75.45-11.24.6c-2.49.15-4.67.27-6.69.33s-3.85.43-6.41.23c-2.56-.2-5.28.08-7.28.05-2-.03-7.6-.16-9.52-.16s-4.51-.61-4.63.88h-.03s0,1.01,1.26,1,9.02.08,11.96.31,13.2,1.25,15.51,1.26c2.44.02,9.54.76,11.75,1.03,2.21.27,10.47.46,11.93.59s6.92.75,8.13,1.09c2.34.62,6.4,1.25,8.65,3.01.51.61.29,1.31.65,2.24.7,2,1.97.89,2.02-.67.15-1.54-.31-3.37-.47-4.93-.14-2.21.33-6.28.31-9.17-.07-2.68,1.49-5.91-.46-6.88Z"/>
  <path class="st0" d="M318.68,409.33c1.47-.79,4.26-2.45,5.72-3.6s4.33-4.04,6.87-6.57c2.54-2.53,8.49-9.16,10.73-11.56s10.41-12.82,13.53-16.3,9.03-10.56,11.79-13.48c2.92-3.02,5.49-5.12,7.88-7.39,2.28-2.22,4.46-5.14,6.84-7.09.61-.56,1.86-1.46,1.82-2.28-.33-.53-1.24.26-1.71.63-3.56,3.08-7.22,6.07-10.63,9.14-1.43,1.35-10.13,8.86-11.99,10.69-1.86,1.83-19.99,16.73-23.22,19.46s-10.87,8.7-12.64,10.19-4.18,3.91-6.08,6.55h0c-1.9,2.63-3.03,3.78-3.56,6.12-.28,1.95-.32,3.49.92,4.8,1.01,1.15,2.3,1.16,3.73.69Z"/>
  <path class="st0" d="M375.16,499.72c-4.83-5.54-9.8-11.12-14.71-16.45-1.83-1.86-16.73-19.99-19.46-23.22s-8.71-10.88-10.19-12.64-3.91-4.18-6.55-6.08c-2.64-1.9-3.7-1.81-6.13-3.56-1.43-.78-3.18-.98-4.34.29-1.3,1.19-1.86,2.76-1.15,4.36.92,2.08,2.44,4.26,3.6,5.72h.01c1.16,1.47,4.04,4.34,6.57,6.88,2.53,2.54,9.17,8.48,11.56,10.73,2.39,2.24,12.82,10.41,16.3,13.53s10.57,9.03,13.48,11.79c3.44,3.32,5.53,6.02,8.48,8.88,2.65,2.29,5.12,4.91,7.56,7.21.52.38.9.5.96.28.1-.39-.63-1.41-1.02-1.88-1.69-2-3.41-4-4.97-5.84Z"/>
  <path class="st0" d="M278.13,435.92c-1.47.79-4.26,2.45-5.72,3.6-1.46,1.15-4.33,4.04-6.87,6.57-2.54,2.53-8.49,9.16-10.73,11.56-2.24,2.4-10.41,12.82-13.53,16.3s-9.03,10.56-11.79,13.48-6.07,5.65-7.64,7.14-4.81,5.48-6.17,6.59c-1.36,1.11-2.76,2-2.8,2.67-.04.67.45.92.95.42s4.45-3.8,5.58-4.76,4.47-3.72,5.9-5.07c1.43-1.35,10.13-8.86,11.99-10.69,1.86-1.83,19.99-16.72,23.22-19.46,3.23-2.73,10.87-8.7,12.64-10.19,1.77-1.49,4.18-3.91,6.08-6.55h-.01c1.9-2.63,3.23-4.15,3.56-6.12.32-1.77.09-3.6-.89-4.8-.66-.91-2.41-1.35-3.77-.69Z"/>
  <path class="st0" d="M229.89,425.6c2.76-.33,8.72-.87,11.2-1.14s4.65-.5,6.67-.65c2.02-.15,3.82.13,6.4.21,2.6-.07,5.04-.23,7.27-.4,2-.07,7.6-.2,9.52-.29,1.92-.09,6.52.39,6.57-1.1v-.02s-.05-1-1.3-.93-10.73-.22-13.68-.31c-2.95-.09-13.34-.54-15.65-.5-2.31.04-12.68-.09-14.9-.25-2.22-.16-7.51-.35-8.97-.41s-6.73-.92-7.95-1.21c-1.22-.29-3.66-.51-5.8-1.24-1.2-.42-2.57-1.02-2.65-2.44-.08-1.24-2.13-4.55-2.99-1.97-.55,2.15-.16,4.9-.21,6.92.09,4.38.16,9.03.44,13.28.26,1.92,2.04,2.04,2.58.26.34-1.5-.21-3.22,1.45-4.06,1.69-.68,5.16-1.91,10.25-2.34s8.99-1.08,11.75-1.41Z"/>
  <path class="st0" d="M311.96,511.25c-1.54.25-2.2-.38-2.62-1.64-.95-2.86-1.39-5.22-1.84-9.66-.43-5.09-1.18-9.01-1.51-11.77s-.87-8.72-1.14-11.2c-.27-2.48-.5-4.65-.65-6.67s-.69-3.81-.92-6.38c-.25-2.73-.5-5.71-.75-7.45-.28-1.98-.72-7.44-.81-9.36s.39-4.53-1.1-4.58h0s-1,.05-.93,1.3.35,9.01.27,11.96c-.09,2.95-.56,13.25-.52,15.55.04,2.3.21,9.79.05,12.01-.16,2.22.04,10.48-.02,11.94s-.92,6.73-1.21,7.95c-.48,1.96-.62,5.42-2.2,7.46-.99,1.01-2.44.53-3.74.93-1.35.2-2.41,1.18-.8,1.97,1.61.62,4.76.1,6.81.03,2.41-.04,6.48.16,9.45-.01,1.2-.08,3.11-.05,4.12-.05.66-.03,2.11-.15,2.45-1.02.23-1.25-1.49-1.36-2.38-1.31Z"/>
</svg>